# xmcd
#
# Track frame offsets: 
#        150
#        11502
#        22069
#        34315
#        49586
#        66054
#        78773
#        89338
#        101830
#        113234
#        122923
#        134731
#        145379
#        156719
#        169761
#        180812
#        194079
#        205499
#        216730
#
# Disc length: 3039 seconds
#
# Revision: 2
# Processed by: cddbd v1.5.2PL0 Copyright (c) Steve Scherf et al.
# Submitted via: ExactAudioCopyFreeDBPlugin 1.0
#
DISCID=240bdd13
DTITLE=Dinah Washinton - Dinah Washington Audiophile Selection
DYEAR=2002
DGENRE=Vocal
TTITLE0=What A Difference A Day Makes
TTITLE1=Three Coins In A Fountain
TTITLE2=Unforgettable
TTITLE3=Smoke Gets In Your Eyes
TTITLE4=Stardust
TTITLE5=Mad About The Boy
TTITLE6=Bewitched
TTITLE7=In The Wee Hours Of The Morning
TTITLE8=Don't Explain
TTITLE9=September In The Rain
TTITLE10=Harbour Lights
TTITLE11=Six Bridges To Cross
TTITLE12=An Affair To Remember
TTITLE13=The Song Is Ended (But The Melody Lingers On)
TTITLE14=If I Loved You
TTITLE15=Am I Blue
TTITLE16=It's Magic
TTITLE17=This Bitter Earth
TTITLE18=Everybody's Somebody's Fool
EXTD=YEAR: 2002
EXTT0=
EXTT1=
EXTT2=
EXTT3=
EXTT4=
EXTT5=
EXTT6=
EXTT7=
EXTT8=
EXTT9=
EXTT10=
EXTT11=
EXTT12=
EXTT13=
EXTT14=
EXTT15=
EXTT16=
EXTT17=
EXTT18=
PLAYORDER=
